<svg width="40" height="40" viewBox="0 0 40 40" fill="none" xmlns="http://www.w3.org/2000/svg">
<g clip-path="url(#clip0_37:3236)">
<path d="M12.8857 25.8333C20.0364 25.8333 25.8332 20.0366 25.8332 12.8859C25.8332 5.73515 20.0364 -0.0616455 12.8857 -0.0616455C5.73502 -0.0616455 -0.0617676 5.73515 -0.0617676 12.8859C-0.0617676 20.0366 5.73502 25.8333 12.8857 25.8333Z" fill="#F0B90B"/>
<path fill-rule="evenodd" clip-rule="evenodd" d="M7.34892 9.58171L12.8906 4.03998L15.1024 6.25176L9.56069 11.7935L7.34892 9.58171ZM7.34892 16.2035L16.2095 7.34781L18.4213 9.55959L9.56561 18.4153L7.34892 16.2035ZM19.5137 10.6655L10.6654 19.5224L12.8771 21.7342L21.7328 12.8785L19.5137 10.6655ZM4.03125 12.8895L6.24303 10.6778L8.45481 12.8895L6.24303 15.1013L4.03125 12.8895Z" fill="#FFFDFA"/>
<g opacity="0.1">
<path opacity="0.1" fill-rule="evenodd" clip-rule="evenodd" d="M12.8857 24.494C15.1816 24.494 17.4259 23.8132 19.3349 22.5377C21.2438 21.2622 22.7317 19.4492 23.6103 17.3281C24.4889 15.207 24.7187 12.873 24.2708 10.6212C23.8229 8.36946 22.7174 6.30109 21.0939 4.67766C19.4705 3.05423 17.4021 1.94866 15.1504 1.50076C12.8986 1.05286 10.5646 1.28274 8.44349 2.16133C6.32238 3.03993 4.50943 4.52777 3.23391 6.43672C1.95839 8.34567 1.27759 10.59 1.27759 12.8859C1.27759 15.9645 2.50058 18.9171 4.67753 21.0941C6.85448 23.271 9.80706 24.494 12.8857 24.494V24.494ZM12.8857 25.8334C15.4465 25.8334 17.9498 25.074 20.079 23.6513C22.2082 22.2286 23.8677 20.2065 24.8477 17.8407C25.8276 15.4748 26.084 12.8715 25.5844 10.3599C25.0849 7.84836 23.8517 5.54134 22.041 3.7306C20.2303 1.91985 17.9232 0.686725 15.4117 0.187143C12.9001 -0.312439 10.2968 -0.0560356 7.93094 0.92393C5.56509 1.9039 3.54297 3.56341 2.12028 5.69261C0.69759 7.82182 -0.0617676 10.3251 -0.0617676 12.8859C-0.0617676 16.3198 1.30234 19.613 3.73047 22.0411C6.15859 24.4693 9.45184 25.8334 12.8857 25.8334V25.8334Z" fill="#191326"/>
</g>
<path d="M39.1667 25.6667C39.1667 33.1225 33.1226 39.1667 25.6667 39.1667C18.2109 39.1667 12.1667 33.1225 12.1667 25.6667C12.1667 18.2108 18.2109 12.1667 25.6667 12.1667C33.1226 12.1667 39.1667 18.2108 39.1667 25.6667Z" fill="#F0B90B" stroke="#141414"/>
<path d="M20.4801 25.6667L18.3526 27.8089L16.209 25.6654L18.3526 23.5218L20.4801 25.6667ZM25.6669 20.4799L29.3321 24.1438L31.4756 22.0002L27.8105 18.351L25.6669 16.2075L23.5246 18.351L19.8742 22.0015L22.0177 24.1451L25.6669 20.4799ZM32.9826 23.5245L30.855 25.668L32.9972 27.8116L35.1248 25.668L32.9826 23.5245ZM25.6669 30.8548L22.0017 27.1896L19.8742 29.3305L23.5393 32.9957L25.6669 35.1233L27.8105 32.9797L31.4756 29.3145L29.3321 27.1883L25.6669 30.8548ZM25.6669 27.8103L27.8105 25.6667L25.6669 23.5231L23.5246 25.6667L25.6669 27.8103Z" fill="#FFFDFA"/>
<g opacity="0.1">
<path opacity="0.1" fill-rule="evenodd" clip-rule="evenodd" d="M25.6667 38.2185C28.1482 38.2185 30.5739 37.4827 32.6372 36.104C34.7004 34.7254 36.3086 32.7659 37.2582 30.4734C38.2078 28.1808 38.4562 25.6581 37.9721 23.2243C37.488 20.7906 36.2931 18.555 34.5384 16.8003C32.7838 15.0457 30.5482 13.8507 28.1144 13.3666C25.6807 12.8825 23.158 13.131 20.8654 14.0806C18.5728 15.0302 16.6134 16.6383 15.2347 18.7016C13.8561 20.7648 13.1203 23.1906 13.1203 25.672C13.1203 28.9996 14.4421 32.1908 16.795 34.5437C19.148 36.8966 22.3392 38.2185 25.6667 38.2185ZM25.6667 39.6667C28.4357 39.6667 31.1424 38.8456 33.4447 37.3073C35.747 35.7689 37.5414 33.5824 38.6011 31.0243C39.6607 28.4661 39.9379 25.6512 39.3977 22.9354C38.8575 20.2197 37.5242 17.7251 35.5662 15.7672C33.6083 13.8093 31.1137 12.4759 28.398 11.9357C25.6823 11.3955 22.8673 11.6728 20.3092 12.7324C17.751 13.792 15.5645 15.5864 14.0262 17.8887C12.4878 20.191 11.6667 22.8978 11.6667 25.6667C11.6667 29.3797 13.1417 32.9407 15.7673 35.5662C18.3928 38.1917 21.9537 39.6667 25.6667 39.6667V39.6667Z" fill="#191326"/>
</g>
</g>
<defs>
<clipPath id="clip0_37:3236">
<rect width="40" height="40" fill="white"/>
</clipPath>
</defs>
</svg>
